<svg id="Layer_1" data-name="Layer 1" xmlns="http://www.w3.org/2000/svg" viewBox="0 0 952.65 497.7">
  <title>drop</title>
  <path
    d="M704.17,1353.13c-9.78,7.84-48.87,15.23-45.66,53.13,9.19,77.22-1.5,166.37,38.61,243.4l-.67-1.29c55,95.52,173.95-18.95,145.09-181.44l0,.21c-.12-.52.11.32-1.72-7.32v.15c-4.22-23.72-46.52-129.19-135.68-106.84Zm35.18,112.27c104.26-14.87,4.58,247.76-9.7,30,.35-7.27-9.75-31.15,9.7-30Z"
    transform="translate(-658.33 -1185.47)" fill="#497dea" />
  <path
    d="M968.3,1299.62c-.1,5-69.07-23.38-69.6,106.76,0-.27,0-.53,0-.79-.46,1.72.74,23.81,4,36.34l0-.25c8,37.09-.19,74.27,22.17,151h0c.88,2.45.22.7,1.64,4.79l-.06-.2c.26,42.3,110.82,100.71,84-98.64l.15.05c5.66,4.82-1.07-3.56,15.86,20.78l-.47-1c1.53,3.22-.57-1.83,16.31,27h0c14.56,19.2,14.78,56.06,43.71,69.35,3.59,2.54,58.92,5.08,39.93-51.58h0a8.16,8.16,0,0,0-.41-.79l.16.39c-38.42-64.67-83.13-41.19-52.55-178-1.58-1.14,5.7-1.14-4.89-30.23l0,.06c-7.41-8.79.87-15.18-32.18-40.58l.46.31c-3.74,0-11.54-15.55-68.31-14.82Zm3.3,116.05c-72.38-34.38,52.76-103.36,65.26-34.56-7.93,22.29-34.52,40-65.26,34.56Zm-56.25-9.46,0-.44,0,.65v-.21Z"
    transform="translate(-658.33 -1185.47)" fill="#497dea" />
  <path d="M1354,1358.61c0,.24.12.51.22.9C1354.13,1359.21,1354.05,1358.91,1354,1358.61Z"
    transform="translate(-658.33 -1185.47)" fill="#497dea" />
  <path
    d="M1354.71,1361.83c-.34-1.47-.66-3-1-4.44.1.41.2.82.29,1.22-.29-1.43,0-1.39-3.87-15.83.07.34.16.67.23,1-18.5-37.46-35.36-116.84-97.29-112.42-.29,3-25.94-5.9-57.39,49.43l.7-1.12c-2.7,5-2.59,3.15-5.23,16v0c0,4.43-9.47.39,17.11,197.23C1247.91,1650.26,1407.64,1542.69,1354.71,1361.83Zm-110,82.15v0c0-.06,0-.13,0-.2s0,.1,0,.15c-12.56-93-8.07-91.12-8.09-93.22v0c1.24-6.11,1.2-5.21,2.47-7.59l-.33.53c14.87-26.16,27-21.94,27.13-23.37,29.27-2.09,37.24,35.43,46,53.14,0-.16-.08-.32-.11-.47a75.13,75.13,0,0,1,1.83,7.49c0,.13.07.27.1.41,0-.18-.08-.3-.1-.41s-.09-.39-.14-.59c.17.71.32,1.41.48,2.11C1339,1467.53,1263.47,1518.37,1244.73,1444Z"
    transform="translate(-658.33 -1185.47)" fill="#497dea" />
  <path d="M1208.26,1493v-.08c0-.11-.06-.23-.08-.34Z" transform="translate(-658.33 -1185.47)" fill="#497dea" />
  <path
    d="M1460.93,1185.55c-16.26,5.09-13.6-5.16-45.43,18l.79-.7c-33.82,29.61-26.47,21.73,16.66,269.79,8.93,33.9,113.14,99.69,77.64-101.9,2.52-16.81,46.68-29.48,85-60.4,13-9,63.63-128.42-134.66-124.8ZM1478,1312c-114.29-66.16,143.55-135.77,50.2-13.46-12.27,7.51-8.58,13.61-50.2,13.46Z"
    transform="translate(-658.33 -1185.47)" fill="#497dea" />
  <path
    d="M1448.47,1447.9a5.66,5.66,0,0,0-4.12,6.76c.72,2.68,1.41,5.37,2.37,8a42.1,42.1,0,0,0,3.6,7.58,43.72,43.72,0,0,0,13.11,13.08,5.6,5.6,0,0,0,6-9.49c-1-.69-2-1.41-3-2.16a42.26,42.26,0,0,1-5.47-5.64,40.58,40.58,0,0,1-3.61-6.76c-.82-2.36-1.46-4.79-2.09-7.22a5.7,5.7,0,0,0-5.46-4.27,5.83,5.83,0,0,0-1.3.15Z"
    transform="translate(-658.33 -1185.47)" fill="#fff" />
  <path
    d="M1562.37,1219.71a5.6,5.6,0,0,0-1.76,3.9,5.33,5.33,0,0,0,1.52,4c1.64,1.36,3.26,2.75,4.88,4.13,1.77,1.51,3.61,2.93,5.42,4.4l-1.11-.91,3.43,2.8a41.77,41.77,0,0,1,5.92,5.82,20.74,20.74,0,0,1,1.43,2.82,59.68,59.68,0,0,1,2.06,7.8,5.6,5.6,0,0,0,10.89-2.64,58.43,58.43,0,0,0-2.21-8.23c-.48-1.3-1-2.59-1.6-3.84a24.15,24.15,0,0,0-2.27-3.42,26.55,26.55,0,0,0-2.39-2.69,63,63,0,0,0-5.92-5.14c-1.75-1.4-3.48-2.82-5.23-4.21s-3.42-2.92-5.15-4.35l-1.11-.91a5.57,5.57,0,0,0-2.79-.86h-.17a5.63,5.63,0,0,0-3.84,1.52Z"
    transform="translate(-658.33 -1185.47)" fill="#fff" />
  <path
    d="M1272.6,1248.23a39.41,39.41,0,0,0-10.21,1.89A5.59,5.59,0,1,0,1265,1261c1.43-.41,2.87-.81,4.33-1.15.8-.18,1.6-.3,2.41-.4a18.83,18.83,0,0,1,2.61.08,31.18,31.18,0,0,1,4.31,1.45,34.53,34.53,0,0,1,5.85,3.47,70.56,70.56,0,0,1,7.66,7.61,5.6,5.6,0,0,0,9.68-3.66,5.84,5.84,0,0,0-1.52-4,57.12,57.12,0,0,0-6.59-6.7,44.45,44.45,0,0,0-6.26-4.75,45.72,45.72,0,0,0-5.22-2.54,24.73,24.73,0,0,0-9.45-2.16Z"
    transform="translate(-658.33 -1185.47)" fill="#fff" />
  <path
    d="M1237.26,1515.93a5.66,5.66,0,0,0-3.42,2.47,5.45,5.45,0,0,0-.69,4.29,60.6,60.6,0,0,0,4.12,10.44,48.42,48.42,0,0,0,5.17,7.22,38.34,38.34,0,0,0,7.23,6.59,29.56,29.56,0,0,0,6.87,3.23,27,27,0,0,0,4.78,1.22l1.48.25a5.61,5.61,0,0,0,5.1-8.28,5.36,5.36,0,0,0-3.27-2.67,33.27,33.27,0,0,1-7-2.08,22.77,22.77,0,0,1-3-1.92,54.45,54.45,0,0,1-5.47-5.79,34.4,34.4,0,0,1-3.47-6c-.58-1.6-1.12-3.2-1.65-4.81a5.91,5.91,0,0,0-2.47-3.42,5.61,5.61,0,0,0-3-.85,5.79,5.79,0,0,0-1.31.15Z"
    transform="translate(-658.33 -1185.47)" fill="#fff" />
  <path
    d="M936.4,1561.81a5.64,5.64,0,0,0-3.43,2.47l-.6,1.32a5.58,5.58,0,0,0-.09,3c.38,3.29.76,6.58,1.26,9.86.45,2.89,1.12,5.78,1.77,8.64q2,8.67,4.34,17.22a5.59,5.59,0,0,0,10.87-2.64c-1.58-5.67-2.95-11.38-4.3-17.1-.68-2.86-1.24-5.75-1.76-8.64-.6-3.3-.9-6.66-1.29-10a5.37,5.37,0,0,0-2.47-3.43,5.61,5.61,0,0,0-4.3-.69Z"
    transform="translate(-658.33 -1185.47)" fill="#fff" />
  <path
    d="M1009.72,1316.57a5.59,5.59,0,0,0-2.24,7.58,5.32,5.32,0,0,0,3.26,2.67,48.68,48.68,0,0,1,8,2.49c1.68.85,3.33,1.76,4.93,2.77a61,61,0,0,1,5.19,3.89,5.43,5.43,0,0,0,4.3.7,5.61,5.61,0,0,0,4.12-6.77,6,6,0,0,0-2.47-3.42c-1.5-1.18-3-2.37-4.58-3.46a44,44,0,0,0-4.83-2.84,45.94,45.94,0,0,0-11.38-4,7.71,7.71,0,0,0-1.76-.22,5.21,5.21,0,0,0-2.56.65Z"
    transform="translate(-658.33 -1185.47)" fill="#fff" />
  <path
    d="M708.87,1372.58a65.82,65.82,0,0,0-11.43,9.36,134.93,134.93,0,0,0-9.26,9.87c-1.69,2-3.41,4.06-4.95,6.21-1.38,1.94-2.61,3.93-3.8,6a31.93,31.93,0,0,0-2.86,6.44,71.45,71.45,0,0,0-1.64,7.52,6,6,0,0,0,.43,4.32,5.6,5.6,0,0,0,7.59,2.24,5.32,5.32,0,0,0,2.67-3.26,50.28,50.28,0,0,1,2.55-9.93,61,61,0,0,1,6.88-10.39c2.61-3.1,5.27-6.15,8.16-9a102.83,102.83,0,0,1,9.45-8.51q.76-.53,1.56-1a5.68,5.68,0,0,0,2.25-7.59,5.88,5.88,0,0,0-5.05-2.95,4.88,4.88,0,0,0-2.55.7Z"
    transform="translate(-658.33 -1185.47)" fill="#fff" />
  <path d="M759.32,1653.22a5.65,5.65,0,1,0,5.82-5.47,5.7,5.7,0,0,0-5.82,5.47Z" transform="translate(-658.33 -1185.47)"
    fill="#fff" />
  <path
    d="M776.55,1630.77a5.45,5.45,0,0,0-3.43,2.47,57.7,57.7,0,0,1-5.47,8.63c-1.79,2-3.64,4-5.61,5.8-2.2,2.06-4.55,4-6.85,5.94a5.59,5.59,0,0,0,3.66,9.66,5.74,5.74,0,0,0,4-1.51,122.56,122.56,0,0,0,11-10,55.81,55.81,0,0,0,4.9-6,65,65,0,0,0,3.91-6.57,5.89,5.89,0,0,0,.7-4.3,5.66,5.66,0,0,0-2.47-3.42,5.59,5.59,0,0,0-3-.86,5.28,5.28,0,0,0-1.31.16Z"
    transform="translate(-658.33 -1185.47)" fill="#fff" />
</svg>