<svg id="Layer_1" data-name="Layer 1" xmlns="http://www.w3.org/2000/svg" viewBox="0 0 1275.81 455.56">
  <title>elbow</title>
  <path
    d="M527.14,1231.15c-23,4.92-62.71,11.12-68.18,55.29,3.67,28.8-32.42,214.33,60,237.27,3.71-3.52,72.77,14.86,109.7-6.52,1.16,3.26,50.45-65.24-65-74.31-24.14-49,56.61-1.28,55.51-61.09,0,.23,0,.45-.05.68-1.63-11.4,1.63-25.08-37.37-22.28l.21,0c-32.21,6.9-73.42-33.49,27.38-53.17,12.42-2.17,39.86-87.53-82.22-75.9Z"
    transform="translate(-455.01 -1072.91)" fill="#497dea" />
  <path
    d="M701.46,1232.51c-7.42,5.31-36,8.77-38.14,50.76,8,46.74-7.11,173.26,57.19,237.88,37.57,29.43,195.35-36.1,103.45-86.47-16.2-6.14-37,16.66-57.65,3.91-16.6-21.86,24.73-214.87-64.85-206.08Z"
    transform="translate(-455.01 -1072.91)" fill="#497dea" />
  <path
    d="M936.94,1191c-74.66,24.59-40.39,66.8-43.69,165.64-21.54,300.29,331.14,104.32,140.32-10,31.82-58.49,10.17-167.3-96.63-155.61Zm29.27,122c-27.34-2.14-47.29-77.64,16.66-53.11,18.47,9.52,15.83,55.59-16.66,53.11Zm-2.36,96.29c57.49-50.16,112.72,66.22,23.49,65.28-7,1.18-38.15-27.44-23.49-65.28Z"
    transform="translate(-455.01 -1072.91)" fill="#497dea" />
  <path d="M1149.13,1316.25c0-.12,0,0,0-.26A2.26,2.26,0,0,1,1149.13,1316.25Z" transform="translate(-455.01 -1072.91)"
    fill="#497dea" />
  <path
    d="M1324.91,1272.76l.15.62c-1.2-2.6,1.15-.22-5.33-12.55l.18.33c-17-33-32.92-91.82-86.35-89.88l2.25.07c-53.63.26-87,14.11-86.32,136.48-.12,2.46-.36,5.74-.55,19.19C1123.76,1598.36,1411.81,1548.32,1324.91,1272.76Zm-175.41,34.82.06-1.88C1149.55,1306.39,1149.53,1307,1149.5,1307.58Zm95.32,98.33c-24.85,0-45-32.24-45-72s20.15-72,45-72,45,32.23,45,72S1269.67,1405.91,1244.82,1405.91Z"
    transform="translate(-455.01 -1072.91)" fill="#497dea" />
  <path
    d="M1509.34,1299.53c-17.5-65-18.48-188.76-76-193-39.74-4.93-71.27,56.22-55.39,73.66-2.37,17.13,7,54.29,17.3,93.76,85,310.6,172.43,172.32,184.34,125,3,2.47,6.56,5.21,10.72,8.27l-.08,0c2.14,1.38-.61-.37,8.66,6.06l-.33-.2c38.07,39,125.83,0,127.61-47.39a203.87,203.87,0,0,1,2.94-26.53c5.39-31.51-.1-100.56-39.23-229.94l.21.87c-3.43-13.38-16.17-41.83-40.71-36.44-28.11,19.11-65.56,31.23-31.65,126-.17-.7-.33-1.41-.5-2.11,3.11,8.58,65.9,235.46-10.22,117.3-.54-2.83-.47,1.71-8.35-30.62-.54-2.81-.1.64-4.2-15,.17.7.33,1.4.5,2.11-8.1-117.26-26.1-225.26-69.36-117.11-6.16,52.82,17.48,143,16.26,197.85-.12,5.24-9,9-18,0"
    transform="translate(-455.01 -1072.91)" fill="#497dea" />
  <path
    d="M477.38,1345.32c-.21,3.08-.39,6.17-.51,9.26s0,6,0,9c.1,5.59.39,11.19.7,16.77.66,11.75,1.56,23.52,3,35.21.56,4.39,1.33,8.75,2,13.13.61,4,1.08,8,1.51,12.07.27,3,.56,6,.89,9a5.41,5.41,0,0,0,2.48,3.43,5.61,5.61,0,0,0,7.72-1.78c.2-.44.4-.88.61-1.32a5.79,5.79,0,0,0,.09-3c-.09-.78-.17-1.56-.25-2.34-.65-6.76-1.36-13.49-2.38-20.21-.9-5.92-1.84-11.82-2.49-17.78-.94-9.92-1.65-19.86-2.21-29.81-.29-5-.44-10-.53-15-.05-2.51-.09-5,0-7.51.11-2.92.29-5.82.49-8.73a5.62,5.62,0,0,0-5.41-5.76H483a5.67,5.67,0,0,0-5.58,5.42Zm13.32,60.46c0,.16,0,.32.05.48,0-.16,0-.32-.05-.48Z"
    transform="translate(-455.01 -1072.91)" fill="#fff" opacity="0.19" />
  <path
    d="M615.3,1498.28a38.06,38.06,0,0,1-5.86,5.63,36.16,36.16,0,0,1-6.13,3c-2.71,1-5.41,1.9-8.19,2.67a5.59,5.59,0,0,0,2.63,10.87,91.06,91.06,0,0,0,12.64-4.44c1-.42,1.91-.87,2.85-1.33a24,24,0,0,0,4.77-3.3,40.44,40.44,0,0,0,5-4.91l.91-1.11a5.57,5.57,0,0,0,.85-2.81,5.6,5.6,0,0,0-5.43-5.77h-.15a5.33,5.33,0,0,0-3.86,1.52Z"
    transform="translate(-455.01 -1072.91)" fill="#fff" opacity="0.19" />
  <path
    d="M816.92,1444.19a43.89,43.89,0,0,0-5,.52c-1.42.25-2.81.6-4.21.92s-2.71.76-4.06,1.13l-5.24,1.39A5.59,5.59,0,1,0,801,1459c2.63-.71,5.28-1.35,7.88-2.14a40.82,40.82,0,0,1,6.58-1.43,24.33,24.33,0,0,1,13,2c.76.38,1.52.78,2.26,1.19a5.68,5.68,0,0,0,7.71-1.76c1.54-2.47.89-6.23-1.77-7.7a40.33,40.33,0,0,0-9.37-3.92,35.38,35.38,0,0,0-8.8-1.11c-.54,0-1.08,0-1.61,0Z"
    transform="translate(-455.01 -1072.91)" fill="#fff" opacity="0.19" />
  <path
    d="M736.78,1312.51a5.41,5.41,0,0,0-1.76,3.9c.87,12.76,1.3,25.54,2.57,38.27,0-.12,0-.25,0-.37.61,6.18,1.13,12.37,1.76,18.55.77,7.39,1.74,14.75,2.56,22.13s1.84,15,2.89,22.53a5.4,5.4,0,0,0,2.47,3.43,5.61,5.61,0,0,0,7.72-1.78,6,6,0,0,0,.69-4.29c-1-6.91-1.84-13.83-2.68-20.76-.4-3.29-.71-6.59-1.13-9.87q-.71-5.41-1.3-10.82c-.11-1.06-.21-2.11-.32-3.16-.54-5.9-1.07-11.81-1.67-17.71,0,.25.05.49.07.74-1.22-12.15-1.58-24.37-2.41-36.55a6,6,0,0,0-1.51-4,5.58,5.58,0,0,0-3.9-1.76h-.17a5.61,5.61,0,0,0-3.84,1.52Zm13.28,56.37c.05.4.08.79.12,1.18l-.12-1.18Zm.48,4.65q.06.59.12,1.2l-.12-1.2Zm-11.15.1c0-.14,0-.29,0-.43,0,.14,0,.29,0,.43Zm0-.43,0-.34c0-.24,0-.48-.08-.72,0,.35.08.71.11,1.06Z"
    transform="translate(-455.01 -1072.91)" fill="#fff" opacity="0.19" />
  <path
    d="M1065.9,1441.28a6,6,0,0,0-2.68,3.27c-1.17,2.86-2.35,5.72-3.61,8.55a107.1,107.1,0,0,1-6,11.28,111.22,111.22,0,0,1-7.29,10.34c-.87,1-1.74,2-2.69,3a32.26,32.26,0,0,1-3.31,2.78c-2.33,1.61-4.87,2.91-7.33,4.29a5.59,5.59,0,0,0,5.34,9.82c4.55-2.54,9.21-5,13-8.73a60.84,60.84,0,0,0,5-5.85c1.4-1.77,2.74-3.59,4-5.43,5.76-8.23,9.83-17.48,13.61-26.73a5.38,5.38,0,0,0-.43-4.33,5.63,5.63,0,0,0-3.26-2.68,5.83,5.83,0,0,0-1.65-.24,5.58,5.58,0,0,0-2.68.67Z"
    transform="translate(-455.01 -1072.91)" fill="#fff" opacity="0.19" />
  <path
    d="M963.78,1202.36a5.58,5.58,0,0,0-.25,7.91,6,6,0,0,0,3.9,1.76c.7.08,1.39.17,2.09.28a25,25,0,0,1,4.63,1.48c2.56,1.24,5.1,2.5,7.67,3.73a36.45,36.45,0,0,1,6.28,3.8c1.89,1.67,3.65,3.47,5.43,5.25q1.79,1.79,3.51,3.63c1.21,1.29,2.49,2.58,3.62,4,1.93,2.37,5.81,2.22,7.91.24a5.58,5.58,0,0,0,1.76-3.9,5.87,5.87,0,0,0-1.51-4c-1.33-1.63-2.84-3.15-4.29-4.66s-2.69-2.81-4.09-4.17c-2.8-2.7-5.49-5.45-8.83-7.52a97.22,97.22,0,0,0-9.31-4.78,53.87,53.87,0,0,0-7-3.11,42.59,42.59,0,0,0-7.52-1.4l-.42,0a5.6,5.6,0,0,0-3.58,1.54Z"
    transform="translate(-455.01 -1072.91)" fill="#fff" opacity="0.19" />
  <path
    d="M1192.47,1194.81a151,151,0,0,0-14.27,12.58c-2.42,2.52-4.68,5.18-6.87,7.91a25.19,25.19,0,0,0-3.31,6.18q-.91,2.25-1.84,4.49a5.46,5.46,0,0,0,.43,4.33,5.6,5.6,0,0,0,7.59,2.24,5.94,5.94,0,0,0,2.67-3.26c.72-1.74,1.42-3.5,2.16-5.24a25.39,25.39,0,0,1,2.17-3.27,97.64,97.64,0,0,1,8.18-8.71c3.45-3.2,7.12-6.14,10.76-9.09,2.37-1.92,2.22-5.82.25-7.92a5.64,5.64,0,0,0-3.91-1.76h-.16a5.94,5.94,0,0,0-3.85,1.53Z"
    transform="translate(-455.01 -1072.91)" fill="#fff" opacity="0.19" />
  <path
    d="M1295.48,1448.57c-1.56,2.38-3.12,4.76-4.77,7.08-1.38,1.92-2.86,3.75-4.35,5.57-3.22,3.76-6.6,7.37-9.87,11.07-1.67,1.9-3.37,3.77-5.2,5.51-.84.79-1.76,1.49-2.64,2.23s-2,1.72-2.94,2.59a5.59,5.59,0,0,0,7.66,8.15c1.37-1.24,2.76-2.45,4.19-3.62a46.63,46.63,0,0,0,4.06-3.89c2.68-2.82,5.18-5.81,7.81-8.67,3-3.27,5.83-6.65,8.59-10.1,2.53-3.17,4.73-6.58,7-10a5.65,5.65,0,0,0-1.78-7.72,5.47,5.47,0,0,0-2.91-.84,5.79,5.79,0,0,0-4.81,2.61Z"
    transform="translate(-455.01 -1072.91)" fill="#fff" opacity="0.19" />
  <path
    d="M1418.94,1131a114.62,114.62,0,0,0-11.4,8.28c-1.5,1.28-2.93,2.62-4.37,4a53.44,53.44,0,0,0-5,5.8c-1.37,1.74-2.67,3.53-4,5.34a36.87,36.87,0,0,0-4.78,9.4,26.59,26.59,0,0,0-1.24,6.56l-.57,7.16a5.59,5.59,0,1,0,11.17.35c.23-2.8.37-5.63.72-8.42a29.16,29.16,0,0,1,1.46-4.56,63,63,0,0,1,6.81-10.05,73.51,73.51,0,0,1,5.2-5.39c1.72-1.62,3.56-3.12,5.42-4.57s3.93-2.71,5.92-4a5.89,5.89,0,0,0,2.68-3.27,5.61,5.61,0,0,0-3.69-7,6.1,6.1,0,0,0-1.74-.25,4.77,4.77,0,0,0-2.6.68Z"
    transform="translate(-455.01 -1072.91)" fill="#fff" opacity="0.19" />
  <path
    d="M1550.86,1409a5.42,5.42,0,0,0-3.43,2.47,89.84,89.84,0,0,1-4.83,9,88.9,88.9,0,0,1-5.27,7.33c-1.59,1.85-3.23,3.63-4.88,5.42s-3.33,3.78-4.93,5.73q-1.63,2-3.3,3.9a6,6,0,0,0-1.76,3.9,5.6,5.6,0,0,0,5.42,5.76,5.38,5.38,0,0,0,4-1.51c1.53-1.78,3-3.58,4.52-5.38,1.72-2,3.48-4,5.31-6,2.2-2.34,4.23-4.82,6.23-7.34a77.51,77.51,0,0,0,9-14.93c.2-.44.4-.88.61-1.32a5.6,5.6,0,0,0-5.37-7.26,5.79,5.79,0,0,0-1.31.15Z"
    transform="translate(-455.01 -1072.91)" fill="#fff" opacity="0.19" />
  <path
    d="M1619.38,1408.06a5.64,5.64,0,0,0,3.69,7,97.75,97.75,0,0,0,10.16,2.2c2.8.44,5.62.68,8.45.9s5.57.33,8.36.36a67.73,67.73,0,0,0,10.44-.92,5.38,5.38,0,0,0,3.43-2.47,5.59,5.59,0,0,0-1.77-7.72,6,6,0,0,0-4.3-.7l-2.81.38a80.94,80.94,0,0,1-10.79,0c-3.6-.2-7.19-.52-10.76-1-2.39-.47-4.74-1.06-7.1-1.69a6.2,6.2,0,0,0-1.59-.21,5.57,5.57,0,0,0-5.41,3.9Z"
    transform="translate(-455.01 -1072.91)" fill="#fff" opacity="0.19" />
  <path
    d="M1650.79,1086.31a5.58,5.58,0,0,0-1.76,3.9,5.38,5.38,0,0,0,1.51,4c2.12,1.9,4.24,3.76,6.43,5.56a51.93,51.93,0,0,1,7.81,7.59,30.48,30.48,0,0,1,2.86,5.23,92.9,92.9,0,0,1,3.22,14.94c.5,3,4,4.81,6.77,4.13a5.62,5.62,0,0,0,3.42-2.47,5.89,5.89,0,0,0,.7-4.3c-1.12-6.81-2.15-13.78-5.37-20a35.44,35.44,0,0,0-6.22-8.38,77.9,77.9,0,0,0-6.8-5.88c-1.59-1.34-3.13-2.71-4.67-4.1a5.87,5.87,0,0,0-3.9-1.75h-.18a5.6,5.6,0,0,0-3.82,1.52Z"
    transform="translate(-455.01 -1072.91)" fill="#fff" opacity="0.19" />
</svg>