<svg id="sad" data-name="Sad" xmlns="http://www.w3.org/2000/svg"viewBox="0 0 544 544">
          <defs>
            <linearGradient id="linear-gradientsad" x1="135.98" y1="36.4" x2="408.02" y2="507.6" gradientUnits="userSpaceOnUse">
              <stop offset="0" stopColor="#ffdc2a"/>
              <stop offset="0.27" stopColor="#ffd32e"/>
              <stop offset="0.71" stopColor="#ffb93a"/>
              <stop offset="0.87" stopColor="#ffaf3f"/>
              <stop offset="0.99" stopColor="#ff9a00"/>
            </linearGradient>
            <linearGradient id="linear-gradient-2" x1="1187.92" y1="696.57" x2="1187.92" y2="528.93" gradientUnits="userSpaceOnUse">
              <stop offset="0" stopColor="#1ebdd7"/>
              <stop offset="0.71" stopColor="#0075be"/>
              <stop offset="0.99" stopColor="#005b97"/>
            </linearGradient>
          </defs>
          <title>sad</title>
          <g id="face">
            <circle cx="272" cy="272" r="272" fill="url(#linear-gradientsad)"/>
          </g>
          <ellipse id="leftEye" cx="199" cy="205" rx="48" ry="61"/>
          <ellipse id="rightEye" cx="353" cy="205" rx="48" ry="61"/>
          <path id="mouth" d="M1010.78,671.06c37.48,0,71.47,12.42,96.35,32.59,8.23,6.67,19.42-3.41,13.51-12.2A132.76,132.76,0,0,0,899.12,693c-5.79,8.88,5.57,18.81,13.69,12C937.83,684,972.49,671.06,1010.78,671.06Z" transform="translate(-735 -305)" fill="#2c210b"/>
          <path id="leftBrow" d="M928.6,401.86h0a10.14,10.14,0,0,1,1.71-.46c8.48-1.78,36.53,5.94,19.37,20l-.76.39-.63.24c-33.35,13.9-73.58,31.19-86.54,37.28a21.74,21.74,0,0,1-5.45,1.71,13.55,13.55,0,0,1-8.33-1c-3.12-1.51-6.25-4.65-3.89-11a5.74,5.74,0,0,1,1.81-2.46l4.45-3.16C867,432.33,900.57,413.8,928.6,401.86Z" transform="translate(-735 -305)" fill="#71583d"/>
          <path id="rightBrow" d="M1092.76,400.61h0a8.8,8.8,0,0,0-1.7-.46c-8.48-1.79-36.53,5.94-19.37,20l.75.39.63.24c33.36,13.9,73.59,31.19,86.55,37.28a21.74,21.74,0,0,0,5.45,1.71,13.62,13.62,0,0,0,8.33-1c3.12-1.52,6.25-4.65,3.89-11a5.71,5.71,0,0,0-1.81-2.45L1171,442.1C1154.32,431.08,1120.8,412.54,1092.76,400.61Z" transform="translate(-735 -305)" fill="#71583d"/>
          <path id="bigTear" ref={bigTear => this.bigTear = bigTear} d="M1188.3,696.57c-.55-.39-10.33.28-19.12-1s-16.55-4.61-17-5c-20.89-18.26-10.87-52.84-9-58.71.17-.5.35-1,.56-1.48l44.2-101.37h0l44.2,101.37c.21.49.39,1,.56,1.48,1.93,6,12.32,41.84-10.25,59.78-7.69,4-16.35,3.75-17.6,4.23Z" transform="translate(-735 -305)" fill="url(#linear-gradient-2)"/>
          <path id="smallTear" ref={smallTear => this.smallTear = smallTear} d="M1190.11,578.92l14.42,27.81a5.1,5.1,0,0,1,.19.55c.66,2.24,4.16,15.63-3.46,22.33-2.59,1.49-5.52,1.4-5.94,1.58l-5.58.29c-.19-.14-3.5.11-6.46-.38a19.8,19.8,0,0,1-5.76-1.89c-7-6.82-3.67-19.74-3-21.93.06-.19.12-.37.19-.56" transform="translate(-735 -305)" fill="#29abe2"/>
        </svg>